<svg width="74" height="97" viewBox="0 0 74 97" fill="none" xmlns="http://www.w3.org/2000/svg">
<g clip-path="url(#clip0_213_888)">
<path d="M18.2003 94.0663L16.7698 92.6243C16.4309 92.2828 15.8816 92.2828 15.5427 92.6243L14.1122 94.0663C13.7734 94.4079 13.7734 94.9617 14.1122 95.3033L15.5427 96.7453C15.8816 97.0869 16.4309 97.0869 16.7698 96.7453L18.2003 95.3033C18.5391 94.9617 18.5391 94.4079 18.2003 94.0663Z" fill="#FF007D"/>
<path d="M28.6221 94.0644L27.1917 92.6224C26.8528 92.2808 26.3034 92.2808 25.9646 92.6224L24.5341 94.0644C24.1953 94.406 24.1953 94.9598 24.5341 95.3014L25.9646 96.7434C26.3034 97.0849 26.8528 97.0849 27.1917 96.7434L28.6221 95.3014C28.961 94.9598 28.961 94.406 28.6221 94.0644Z" fill="#FF007D"/>
<path d="M39.044 94.0663L37.6135 92.6243C37.2747 92.2828 36.7253 92.2828 36.3865 92.6243L34.956 94.0663C34.6171 94.4079 34.6171 94.9617 34.956 95.3033L36.3865 96.7453C36.7253 97.0869 37.2747 97.0869 37.6135 96.7453L39.044 95.3033C39.3829 94.9617 39.3829 94.4079 39.044 94.0663Z" fill="#FF007D"/>
<path d="M49.4698 94.0683L48.0393 92.6263C47.7005 92.2847 47.1511 92.2847 46.8122 92.6263L45.3818 94.0683C45.0429 94.4099 45.0429 94.9637 45.3818 95.3053L46.8122 96.7473C47.1511 97.0888 47.7005 97.0889 48.0393 96.7473L49.4698 95.3053C49.8087 94.9637 49.8086 94.4099 49.4698 94.0683Z" fill="#FF007D"/>
<path d="M59.8917 94.0663L58.4612 92.6243C58.1223 92.2828 57.573 92.2828 57.2341 92.6243L55.8036 94.0663C55.4648 94.4079 55.4648 94.9617 55.8036 95.3033L57.2341 96.7453C57.573 97.0869 58.1223 97.0869 58.4612 96.7453L59.8917 95.3033C60.2305 94.9617 60.2305 94.4079 59.8917 94.0663Z" fill="#FF007D"/>
<path d="M31.4768 53.0544C21.4018 57.1544 11.6263 55.5572 2.11019 50.9652C-0.00948634 49.9431 -0.549426 47.7969 0.568178 45.8503C2.07246 43.2287 4.3902 43.4568 6.58768 45.0826C13.9771 50.554 22.2011 53.1922 31.4791 53.0544H31.4768Z" fill="#FF4F01"/>
<path d="M33.1268 58.5703C28.4206 64.365 22.1818 67.0888 15.1531 68.3628C12.6256 68.8215 10.5507 68.0134 10.3031 65.4441C10.0155 62.4754 12.1729 61.3536 14.8961 61.5627C21.1939 62.0476 27.3336 61.6364 33.1268 58.5727V58.5703Z" fill="#FF4F01"/>
<path d="M27.6949 78.2321C26.8555 80.231 25.2663 81.6476 23.0028 80.1858C20.5342 78.591 21.0128 76.5184 22.8425 74.7596C25.7567 71.9621 28.9044 69.4117 31.8847 66.6855C30.4276 70.5075 29.277 74.4625 27.6949 78.2321Z" fill="#FF4F01"/>
<path d="M42.5219 53.0544C52.5968 57.1544 62.3723 55.5572 71.8885 50.9652C74.0081 49.9431 74.5481 47.7969 73.4305 45.8503C71.9262 43.2287 69.6085 43.4568 67.411 45.0826C60.0216 50.554 51.7975 53.1922 42.5195 53.0544H42.5219Z" fill="#FF4F01"/>
<path d="M40.875 58.5703C45.5812 64.365 51.82 67.0888 58.8486 68.3628C61.3762 68.8215 63.4511 68.0134 63.6986 65.4441C63.9863 62.4754 61.8289 61.3536 59.1056 61.5627C52.8079 62.0476 46.6681 61.6364 40.875 58.5727V58.5703Z" fill="#FF4F01"/>
<path d="M46.3031 78.2321C47.1425 80.231 48.7317 81.6476 50.9952 80.1858C53.4638 78.591 52.9852 76.5184 51.1555 74.7596C48.2412 71.9621 45.0936 69.4117 42.1133 66.6855C43.5704 70.5075 44.721 74.4625 46.3031 78.2321Z" fill="#FF4F01"/>
<path d="M37.6423 0.752616C33.7732 5.55853 30.8754 10.8184 30.1185 17.0789C29.3475 23.4702 31.604 29.1983 34.0608 34.848C34.8931 36.7637 36.3833 36.8088 37.8333 34.9763C41.5563 30.2631 44.0839 24.9985 44.7087 18.5335C45.0081 12.3277 42.9686 6.43082 39.6936 0.859572C38.9721 -0.366862 38.3827 -0.169587 37.6423 0.752616Z" fill="#FF4F01"/>
<path d="M49.7485 19.9595C47.1431 22.7831 46.134 26.4458 44.467 29.4976C44.3232 31.487 44.7429 31.815 46.813 31.6035C56.0722 30.6527 63.0631 24.4207 65.27 15.2748C65.6402 13.7441 65.3596 13.2141 63.7681 13.4042C58.3781 14.0436 53.554 15.8381 49.7509 19.9595H49.7485Z" fill="#360080"/>
<path d="M28.6191 30.3908C28.2112 29.5922 28.2159 28.5749 28.0603 27.6504C26.7753 20.0042 22.5689 14.7395 15.3917 11.9468C13.8568 11.3502 11.9729 9.91935 10.6855 11.0436C9.53728 12.0418 10.6596 14.1097 10.9708 15.657C12.6402 23.9283 20.1993 31.2013 27.7278 31.7242C28.3267 31.6339 29.4113 31.9357 28.6191 30.3932V30.3908Z" fill="#360080"/>
<path d="M38.3992 43.2601L41.3913 42.5922L65.4646 37.2206L69.7275 36.2699L73.5425 35.419C62.8262 28.1103 43.2351 32.6072 38.3945 43.2601H38.3992Z" fill="#360080"/>
<path d="M8.79979 37.6079L18.3796 39.5664L26.3042 41.1874L26.3231 41.1921L32.2695 42.4067C32.4227 42.5065 32.5783 42.5968 32.7387 42.6753C32.5783 42.5968 32.4227 42.5089 32.2695 42.4067L35.9147 43.1506C27.186 31.2594 11.4264 29.5077 0.453125 35.9014L4.26099 36.6786L8.79979 37.6055V37.6079Z" fill="#360080"/>
</g>
<defs>
<clipPath id="clip0_213_888">
<rect width="74" height="97" fill="white"/>
</clipPath>
</defs>
</svg>
