<svg width="123" height="70" viewBox="0 0 123 70" fill="none" xmlns="http://www.w3.org/2000/svg">
<g clip-path="url(#clip0_141_280)">
<path d="M56.0223 69.8034C56.2828 69.5414 56.2828 69.1167 56.0223 68.8547C55.7619 68.5928 55.3397 68.5928 55.0792 68.8547C54.8188 69.1167 54.8188 69.5414 55.0792 69.8034C55.3397 70.0653 55.7619 70.0653 56.0223 69.8034Z" fill="#FF4F01"/>
<path d="M59.7255 69.8043C59.9859 69.5423 59.9859 69.1176 59.7255 68.8557C59.465 68.5937 59.0428 68.5937 58.7824 68.8557C58.5219 69.1176 58.5219 69.5423 58.7824 69.8043C59.0428 70.0662 59.465 70.0662 59.7255 69.8043Z" fill="#FF4F01"/>
<path d="M63.4286 69.8034C63.689 69.5414 63.689 69.1167 63.4286 68.8547C63.1681 68.5928 62.7459 68.5928 62.4855 68.8547C62.2251 69.1167 62.2251 69.5414 62.4855 69.8034C62.7459 70.0653 63.1681 70.0653 63.4286 69.8034Z" fill="#FF4F01"/>
<path d="M67.1317 69.8043C67.3921 69.5423 67.3921 69.1176 67.1317 68.8557C66.8713 68.5937 66.449 68.5937 66.1886 68.8557C65.9282 69.1176 65.9282 69.5423 66.1886 69.8043C66.449 70.0662 66.8713 70.0662 67.1317 69.8043Z" fill="#FF4F01"/>
<path d="M70.8309 69.8034C71.0914 69.5414 71.0914 69.1167 70.8309 68.8547C70.5705 68.5928 70.1483 68.5928 69.8878 68.8547C69.6274 69.1167 69.6274 69.5414 69.8878 69.8034C70.1483 70.0653 70.5705 70.0653 70.8309 69.8034Z" fill="#FF4F01"/>
<path d="M11.1804 25.9203C7.60196 27.3732 4.1306 26.8074 0.749978 25.1793C-0.00308678 24.8179 -0.195436 24.0567 0.201965 23.3668C0.735461 22.4377 1.5593 22.518 2.33958 23.0948C4.96351 25.0351 7.88504 25.9696 11.1804 25.9203Z" fill="#FF4F01"/>
<path d="M11.7634 27.8751C10.0921 29.9285 7.87648 30.8941 5.37957 31.3449C4.48134 31.5074 3.74461 31.2208 3.6575 30.31C3.55589 29.2587 4.32165 28.8608 5.28884 28.9356C7.52626 29.1072 9.70561 28.9611 11.7634 27.8751Z" fill="#FF4F01"/>
<path d="M9.83799 34.8421C9.5404 35.5503 8.97605 36.0522 8.17218 35.5339C7.29572 34.968 7.46448 34.2343 8.11592 33.6119C9.15025 32.6208 10.2681 31.7173 11.3278 30.7517C10.8106 32.106 10.4023 33.5078 9.83981 34.8439L9.83799 34.8421Z" fill="#FF4F01"/>
<path d="M111.82 25.9203C115.399 27.3732 118.87 26.8074 122.251 25.1793C123.004 24.8179 123.196 24.0567 122.799 23.3668C122.265 22.4377 121.441 22.518 120.661 23.0948C118.037 25.0351 115.116 25.9696 111.82 25.9203Z" fill="#FF4F01"/>
<path d="M111.234 27.8751C112.906 29.9285 115.121 30.8941 117.618 31.3449C118.516 31.5074 119.253 31.2208 119.34 30.31C119.442 29.2587 118.676 28.8608 117.709 28.9356C115.471 29.1072 113.292 28.9611 111.234 27.8751Z" fill="#FF4F01"/>
<path d="M113.162 34.8421C113.459 35.5503 114.024 36.0522 114.827 35.5339C115.704 34.968 115.535 34.2343 114.884 33.6119C113.849 32.6208 112.732 31.7173 111.672 30.7517C112.189 32.106 112.597 33.5078 113.16 34.8439L113.162 34.8421Z" fill="#FF4F01"/>
<path d="M63.1867 0.266492C61.813 1.96945 60.7841 3.83302 60.5156 6.05252C60.2415 8.31765 61.0436 10.3473 61.9164 12.3496C62.2122 13.0286 62.7421 13.045 63.2556 12.3953C64.5785 10.7252 65.4749 8.85975 65.6981 6.56724C65.8052 4.36782 65.0811 2.27791 63.918 0.302997C63.6621 -0.131411 63.4534 -0.0620519 63.1885 0.264667L63.1867 0.266492Z" fill="#FF4F01"/>
<path d="M67.4869 7.07286C66.5614 8.07309 66.204 9.37084 65.6106 10.4532C65.5598 11.1578 65.7086 11.2746 66.4435 11.1997C69.7316 10.8621 72.2158 8.65352 72.9979 5.41371C73.1285 4.87161 73.0305 4.68361 72.4644 4.75114C70.55 4.97747 68.837 5.61266 67.4851 7.07468L67.4869 7.07286Z" fill="#5F61FD"/>
<path d="M59.9809 10.7708C59.8357 10.4879 59.8375 10.1265 59.7831 9.79977C59.3276 7.08928 57.8324 5.22388 55.2847 4.23459C54.7385 4.02287 54.0707 3.51727 53.6134 3.91335C53.2051 4.26745 53.6043 4.99937 53.715 5.54877C54.3084 8.48012 56.9922 11.0574 59.667 11.2417C59.8793 11.2107 60.264 11.3165 59.9845 10.7708H59.9809Z" fill="#5F61FD"/>
<path d="M63.4549 15.3302L64.5183 15.0929L73.0688 13.1892L74.5822 12.8515L75.9359 12.5504C72.1306 9.96036 65.1716 11.5538 63.4531 15.3302H63.4549Z" fill="#5F61FD"/>
<path d="M52.9416 13.328L56.344 14.0215L59.1585 14.5965H59.1658L61.278 15.0291C61.3324 15.0638 61.3887 15.0966 61.4449 15.124C61.3887 15.0966 61.3324 15.0656 61.278 15.0291L62.5718 15.2937C59.4706 11.0792 53.8744 10.4587 49.9766 12.7256L51.3285 13.0012L52.9398 13.3298L52.9416 13.328Z" fill="#5F61FD"/>
<path d="M15.5654 37.8757C15.9628 38.29 16.1696 38.8266 16.1497 39.3906V39.4289L15.8847 42.8257C16.0245 42.844 16.1678 42.8586 16.3112 42.8732L18.3054 38.3466L18.3345 38.2918C18.9968 37.0287 20.5519 36.775 22.8474 36.775C24.3681 36.775 26.6018 36.775 27.217 38.3484C27.99 37.1182 28.5308 35.7091 28.8374 34.1211C29.2185 32.1462 28.8919 30.5564 27.8557 29.3499C27.344 28.7713 26.8541 28.3077 26.3823 27.9591C25.9105 27.6105 25.4641 27.3203 25.0413 27.0921C24.6185 26.864 24.2428 26.665 23.9162 26.4953C23.5896 26.3273 23.3392 26.1941 23.1668 26.0974C22.3593 25.6885 22.0072 25.2176 22.1107 24.6883C22.2776 23.8213 22.9672 23.3869 24.1757 23.3869C25.3842 23.3869 26.6799 23.7848 28.059 24.5788C28.3021 24.4346 28.812 23.7172 29.5887 22.4286C30.3635 21.14 30.8335 20.074 30.9968 19.2308C31.0114 19.1578 31.0241 19.0866 31.0386 19.0136C31.1075 18.4112 30.447 17.9239 29.057 17.5497C27.667 17.1774 26.1119 16.9894 24.3862 16.9894C21.8476 16.9894 19.6519 17.7177 17.801 19.176C15.9501 20.6344 14.8196 22.4231 14.4113 24.5422C14.0012 26.6632 14.1427 28.4099 14.8359 29.7825C15.0736 30.2881 15.4637 30.7773 16.0081 31.2464C16.5525 31.7155 16.9953 32.0531 17.3401 32.2576C17.683 32.462 18.2038 32.7449 18.9006 33.1063C19.5974 33.4677 20.062 33.7871 20.2961 34.0646C20.5301 34.342 20.6118 34.6614 20.5428 35.0228C20.3886 35.8186 19.8025 36.2147 18.7863 36.2147C17.7701 36.2147 16.763 35.9026 15.7704 35.2747C14.7778 34.6486 14.0883 34.154 13.7036 33.7926C13.2354 34.1065 12.7273 34.7508 12.1793 35.7255C11.9724 36.0924 11.7928 36.4611 11.6367 36.8298C14.1481 36.9211 14.9992 37.2788 15.5654 37.8702V37.8757Z" fill="white"/>
<path d="M35.6816 36.7404C37.4744 36.7404 38.6104 36.8097 39.3761 37.0142H43.5498L43.6677 38.9361C45.8888 37.5033 48.3657 36.7057 51.0586 36.5542L49.9154 17.6447C49.9535 17.453 48.3295 17.3563 45.0486 17.3563C41.7678 17.3563 40.1074 17.453 40.0711 17.6447L31.2031 37.2113C31.8201 36.9959 32.477 36.9338 32.9397 36.8937C34.0811 36.7915 34.9775 36.7422 35.6798 36.7422L35.6816 36.7404ZM43.0072 24.9438H43.2231L43.3937 32.4255H39.6211L43.0072 24.9438Z" fill="white"/>
<path d="M61.0332 40.4621C61.5304 41.1064 61.9369 41.8237 62.2526 42.6159H63.5537L64.138 39.5896C64.4646 37.8976 65.7512 36.8481 67.4932 36.8481H68.0503C68.0195 36.0924 67.8289 35.7128 67.4769 35.7128H61.9441L65.3665 18.0042C65.4645 17.4986 64.2977 17.2449 61.8661 17.2449C59.4345 17.2449 58.1697 17.4986 58.0717 18.0042L54.457 36.713C57.2425 37.162 59.4509 38.4141 61.0332 40.4621Z" fill="white"/>
<path d="M82.9088 39.8141C83.1284 40.0824 83.3225 40.3671 83.4931 40.6665C83.5748 40.5953 83.6583 40.5223 83.7363 40.4474C84.2571 39.9546 84.7198 39.418 85.1281 38.8412C85.2479 38.3959 85.4819 38.0454 85.7941 37.7716C86.3892 36.6838 86.8175 35.4682 87.077 34.123C87.4581 32.1481 87.1314 30.5583 86.0953 29.3518C85.5836 28.7732 85.0936 28.3096 84.6218 27.9609C84.15 27.6123 83.7036 27.3221 83.2808 27.0939C82.858 26.8658 82.4824 26.6668 82.1558 26.4971C81.8291 26.3292 81.5787 26.1959 81.4063 26.0992C80.5988 25.6903 80.2468 25.2194 80.3484 24.6901C80.5153 23.8231 81.2049 23.3887 82.4134 23.3887C83.622 23.3887 84.9176 23.7866 86.2967 24.5806C86.5399 24.4364 87.0498 23.7191 87.8264 22.4304C88.6013 21.1418 89.0713 20.0759 89.2346 19.2326C89.2491 19.1596 89.2618 19.0884 89.2763 19.0154C89.3453 18.4131 88.6847 17.9257 87.2947 17.5516C85.9047 17.1792 84.3496 16.9912 82.6239 16.9912C80.0853 16.9912 77.8896 17.7195 76.0387 19.1779C74.1878 20.6362 73.0573 22.425 72.649 24.5441C72.2389 26.665 72.3804 28.4118 73.0736 29.7844C73.3113 30.2899 73.7015 30.7791 74.2459 31.2482C74.7902 31.7173 75.233 32.055 75.5778 32.2594C75.9207 32.4638 76.4415 32.7467 77.1383 33.1081C77.8352 33.4695 78.2997 33.7889 78.5338 34.0664C78.7679 34.3438 78.8495 34.6632 78.7806 35.0246C78.6263 35.8204 78.0402 36.2165 77.0222 36.2165C76.0042 36.2165 74.9989 35.9044 74.0063 35.2765C73.0137 34.6505 72.3242 34.1558 71.9395 33.7944C71.4713 34.1084 70.9632 34.7527 70.4152 35.7274C70.2065 36.0979 70.0251 36.4702 69.8672 36.8444H74.3511C78.4703 36.8444 81.2684 37.8154 82.9052 39.8104L82.9088 39.8141Z" fill="white"/>
<path d="M95.4979 37.9578C95.5378 38.0071 95.5741 38.0582 95.6086 38.1093L96.075 37.0141H101.787L101.855 38.1148C101.929 38.0308 102.007 37.9487 102.09 37.8702C102.794 37.2003 103.664 36.8462 104.607 36.8462H109.316L108.155 17.641C108.193 17.4493 106.569 17.3526 103.288 17.3526C100.007 17.3526 98.3469 17.4493 98.3106 17.641L89.6367 36.7823C89.996 36.7732 90.3426 36.7732 90.6638 36.7732C93.52 36.7732 94.7848 37.0817 95.4997 37.9541L95.4979 37.9578ZM101.633 32.4237H97.8605L101.247 24.942H101.463" fill="white"/>
<path d="M85.1289 38.8412C85.3702 38.4999 85.5916 38.1421 85.7949 37.7716C85.4828 38.0454 85.2487 38.3958 85.1289 38.8412Z" fill="#FF007D"/>
<path d="M82.749 60.6766L82.7109 60.8774L82.7781 60.7478L82.749 60.6766Z" fill="#FF007D"/>
<path d="M37.1654 38.5912C36.7353 38.5747 36.2436 38.5656 35.681 38.5656C35.035 38.5656 34.1749 38.6149 33.1025 38.7098C32.03 38.8065 31.4439 38.9872 31.3459 39.2519L30.2735 42.5136L26.294 54.6114L25.6117 40.3343L25.5537 39.1077C25.4992 38.77 24.5974 38.6021 22.8499 38.6021C21.1024 38.6021 20.1316 38.7828 19.9429 39.1442L18.2553 42.9754L13.1599 54.5383L14.0962 42.4716L14.3394 39.3231C14.3539 38.9161 13.2651 38.6897 11.0803 38.6459C10.8136 38.6404 10.5323 38.6368 10.2311 38.6368C7.73961 38.6368 6.50386 38.77 6.52563 39.0347L5.58203 63.0677C5.59292 63.5021 6.37502 63.8033 7.92288 63.9712L10.202 64.0789C11.0168 64.0789 11.837 64.0424 12.6663 63.9712C14.2849 63.7777 15.1832 63.4656 15.3628 63.0312L19.9356 53.1292L20.4582 63.0677C20.4709 63.7431 21.9626 64.0789 24.9331 64.0789C25.7242 64.0789 26.7695 63.9949 28.0724 63.8252C29.3734 63.6573 30.1084 63.3908 30.2735 63.0294L39.2504 39.0694C39.3574 38.8084 38.6606 38.6477 37.1672 38.5893L37.1654 38.5912Z" fill="#5F61FD"/>
<path d="M59.6016 41.5827C58.2987 39.898 56.466 38.8741 54.1106 38.5054C53.4519 38.4031 52.7569 38.3484 52.0165 38.3484C51.7298 38.3484 51.4486 38.3593 51.1673 38.3739C48.4308 38.5273 45.9739 39.4253 43.7963 41.0662C43.555 41.2487 43.3155 41.4367 43.0814 41.6357C40.5137 43.8278 38.8188 47.0512 37.9968 51.3022C37.1748 55.555 37.6103 58.7893 39.3015 61.0052C40.9927 63.2228 43.5205 64.3308 46.8866 64.3308C50.2527 64.3308 53.2069 63.2648 55.751 61.1329C58.2951 59.001 59.9899 55.7485 60.8337 51.3752C61.5541 47.6498 61.3582 44.7313 60.2549 42.614C60.0625 42.2471 59.8466 41.9003 59.6016 41.5809V41.5827ZM53.4864 51.2857C53.1144 53.2132 52.4502 54.6953 51.4957 55.7302C50.5412 56.7669 49.4579 57.2835 48.2494 57.2835C47.0409 57.2835 46.1626 56.7724 45.6182 55.7466C45.0738 54.7227 44.9867 53.2533 45.3569 51.3368C45.7271 49.4222 46.4039 47.9346 47.3874 46.8741C48.371 45.8136 49.438 45.2843 50.5866 45.2843C51.7353 45.2843 52.6008 45.8027 53.1779 46.8376C53.7549 47.8743 53.8584 49.3546 53.4864 51.2821V51.2857Z" fill="#5F61FD"/>
<path d="M80.7264 50.1468C81.5357 48.9312 82.0856 47.575 82.3741 46.0801C82.717 44.306 82.5882 42.8513 81.9948 41.7141C80.9369 39.6863 78.391 38.6714 74.3553 38.6714H67.4924C66.6051 38.6714 66.0807 39.0931 65.9192 39.9363L65.402 42.614L61.3663 63.5003C61.2973 63.8617 62.4115 64.0424 64.7106 64.0424C67.0097 64.0424 68.1602 63.8507 68.2364 63.4638L69.8224 55.2593H70.9366L72.7838 63.1735C73.1087 63.8489 73.7383 64.1847 74.6729 64.1847C75.6074 64.1847 76.8921 63.6664 78.5307 62.6315C79.7284 61.8849 80.4796 61.2224 80.7827 60.6438L77.7214 53.0544C78.9154 52.3316 79.9171 51.3624 80.7264 50.1449V50.1468ZM74.8888 47.6352C74.5204 49.539 73.1994 50.4899 70.9239 50.4899H70.7442L71.7913 45.0689H72.5461C73.5514 45.0689 74.2355 45.2807 74.5985 45.7005C74.9596 46.1221 75.0576 46.7664 74.8888 47.6334V47.6352Z" fill="#5F61FD"/>
<path d="M96.2734 57.0681H90.7407L93.6368 42.0774L94.1612 39.3596C94.2592 38.854 93.0924 38.6003 90.6608 38.6003C89.9259 38.6003 89.2999 38.624 88.7791 38.6696C87.5742 38.7755 86.9354 39.0055 86.8665 39.3596L82.7473 60.6766L82.7763 60.7478L82.7092 60.8774L82.5241 61.8393C82.417 62.3942 82.4769 62.887 82.7056 63.3214C82.9324 63.7558 83.3098 63.9712 83.8379 63.9712H94.9034C95.3353 63.9712 95.7581 63.3926 96.1736 62.2372C96.3623 61.6349 96.5111 61.0453 96.6236 60.4667C96.7361 59.8881 96.8087 59.3223 96.8432 58.7674C96.894 57.6358 96.7035 57.0681 96.2734 57.0681Z" fill="#5F61FD"/>
<path d="M118.727 41.5645C117.122 39.637 114.417 38.6733 110.608 38.6733H104.607C104.128 38.6733 103.705 38.8485 103.339 39.1971C102.972 39.5476 102.731 40.0221 102.613 40.6245L102.321 42.1394L98.4229 62.3084C98.2087 63.4163 98.7132 63.9712 99.9344 63.9712H106.079C113.6 63.9712 118.217 59.5377 119.931 50.6724C120.732 46.5291 120.331 43.4938 118.727 41.5645ZM112.27 51.0868C111.826 53.3884 111.167 55.033 110.292 56.0204C109.419 57.0079 108.323 57.5025 107.006 57.5025C106.647 57.5025 106.443 57.4368 106.398 57.3036C106.353 57.1721 106.378 56.8509 106.476 56.3453L108.565 45.5399H108.924C110.457 45.5399 111.51 45.8903 112.081 46.5875C112.653 47.2866 112.717 48.787 112.272 51.0868H112.27Z" fill="#5F61FD"/>
</g>
<defs>
<clipPath id="clip0_141_280">
<rect width="123" height="70" fill="white"/>
</clipPath>
</defs>
</svg>
